<!--?xml version="1.0" standalone="no"?-->
              <svg id="sw-js-blob-svg" viewBox="0 0 100 100" xmlns="http://www.w3.org/2000/svg" version="1.1">
                    <defs> 
                        <linearGradient id="sw-gradient" x1="0" x2="1" y1="1" y2="0">
                            <stop id="stop1" stop-color="rgba(248, 117, 55, 1)" offset="0%"></stop>
                            <stop id="stop2" stop-color="rgba(251, 168, 31, 1)" offset="100%"></stop>
                        </linearGradient>
                    </defs>
                <path fill="url(#sw-gradient)" d="M25.9,-30.8C32.8,-25.1,37.2,-16.2,38,-7.3C38.8,1.5,36,10.4,31.2,17.3C26.3,24.2,19.4,29.2,11.3,33C3.2,36.8,-6.1,39.4,-13.1,36.6C-20.1,33.8,-24.9,25.5,-29.4,17.2C-33.9,9,-38,0.8,-38.2,-8.2C-38.4,-17.2,-34.6,-27,-27.6,-32.7C-20.6,-38.5,-10.3,-40.1,-0.4,-39.7C9.5,-39.2,19,-36.6,25.9,-30.8Z" width="100%" height="100%" transform="translate(50 50)" stroke-width="0" style="transition: all 0.3s ease 0s;" stroke="url(#sw-gradient)"></path>
              </svg>